<mxfile host="app.diagrams.net" modified="2024-04-16T02:53:22.113Z" agent="Mozilla/5.0 (Windows NT 10.0; Win64; x64) AppleWebKit/537.36 (KHTML, like Gecko) Chrome/123.0.0.0 Safari/537.36" version="24.2.5" etag="Tg78RkZgKR-UecQPnUq3" type="github">
  <diagram name="第 1 页" id="FxYt-3161vhRmsvRQ9Sq">
    <mxGraphModel>
      <root>
        <mxCell id="0" />
        <mxCell id="1" parent="0" />
      </root>
    </mxGraphModel>
  </diagram>
</mxfile>
